PathFileType	4	(X/Y/Z)	Patient4_TMGait_0pt6_01_right_32.trc.trc
DataRate	CameraRate	NumFrames	NumMarkers	Units	OrigDataRate	OrigDataStartFrame	OrigNumFrames
77.777777777778	77.777777777778	7	33	mm	77.777777777778	89	       141
Frame#	Time	Sacral			L.Shoulder			Chest			R.Shoulder			Neck			R.ASIS			L.ASIS			R.Thigh.Superior			R.Thigh.Lateral			R.Thigh.Inferior			R.Patella			L.Thigh.Superior			L.Thigh.Lateral			L.Thigh.Inferior			L.Patella			L.Shank.Superior			L.Shank.Lateral			L.Shank.Inferior			R.Shank.Superior			R.Shank.Lateral			R.Shank.Inferior			R.Heel			R.Midfoot.Superior			R.Midfoot.Lateral			R.Toe			L.Heel			L.Midfoot.Lateral			L.Midfoot.Superior			L.Toe			L.Elbow			L.Wrist			R.Elbow			R.Wrist			
		X1	Y1	Z1	X2	Y2	Z2	X3	Y3	Z3	X4	Y4	Z4	X5	Y5	Z5	X6	Y6	Z6	X7	Y7	Z7	X8	Y8	Z8	X9	Y9	Z9	X10	Y10	Z10	X11	Y11	Z11	X12	Y12	Z12	X13	Y13	Z13	X14	Y14	Z14	X15	Y15	Z15	X16	Y16	Z16	X17	Y17	Z17	X18	Y18	Z18	X19	Y19	Z19	X20	Y20	Z20	X21	Y21	Z21	X22	Y22	Z22	X23	Y23	Z23	X24	Y24	Z24	X25	Y25	Z25	X26	Y26	Z26	X27	Y27	Z27	X28	Y28	Z28	X29	Y29	Z29	X30	Y30	Z30	X31	Y31	Z31	X32	Y32	Z32	X33	Y33	Z33	

89	39.401428571429	737.054592025364	1009.669021078206	472.782728316605	898.325522131669	1438.519484872750	292.570264385920	1011.561930539304	1367.141160401687	444.912287683074	938.803497473226	1437.882378157894	624.480522728736	903.755131294377	1496.995657553076	445.374813729800	963.205344764434	940.270244472899	583.423992034727	945.553499733794	962.379504006426	310.296656363450	994.181651869858	733.649318513088	569.348228439748	909.767554657276	629.902874036722	634.959642813082	989.655414042509	565.901494312475	563.527804547925	975.780370254523	457.738960939850	585.680540665830	1008.950243494891	759.661272732174	345.931396107862	932.286860531289	635.542736583521	288.805414842243	1023.035690847810	565.944546817461	354.334204051455	1029.480409923437	495.454479987534	365.828865172566	1004.625426214939	421.640636350574	358.974514964937	920.688443479907	303.902480240634	308.081477971427	972.475024500876	195.642930606845	381.480050208620	895.631221521898	393.990327310226	590.315484972118	772.357230184439	357.908650824308	646.435002856800	757.347693728161	248.289196550195	597.831006290775	555.017732173616	191.631971877218	564.771719273460	717.186012178959	121.425068112593	606.082447694063	607.009615136059	123.114359847491	634.045425476841	775.926301232021	30.139138252699	623.430929834278	846.522807785852	38.198584761258	421.465569483824	920.994821263574	36.294235855917	341.193892753524	1004.199048891854	96.905258604976	368.855006240724	1132.884772482182	43.037664636564	340.396061841239	830.577291411252	1088.118572162103	178.878304152072	901.775971649714	836.179186128992	182.630952716820	969.402574410536	1089.761504436119	740.841865630749	1206.765411072772	1005.632495967074	699.155656472963	
90	39.414285714286	736.884764189575	1009.547372740423	470.168824622838	899.004422296791	1438.763703871090	290.506444311086	1011.498145863020	1367.274827362020	443.361731919293	937.789222828860	1437.642504247647	622.673859110459	903.722345155923	1497.130998950568	443.388086945759	962.903526560512	940.516049680449	581.019146200247	945.696870814185	962.427371057035	308.086266298052	999.406094990541	736.103264620888	566.455991072925	919.064849585095	630.552382205890	633.016212762218	999.932920987734	568.186951423949	560.539653471395	988.137789385213	458.776796270578	583.325796497338	1007.715494900786	758.606875054783	343.305706035143	929.455296997147	635.356387732243	286.755542988168	1019.342181342336	564.919318601175	352.277741380105	1024.952877922337	494.474365437051	364.054886837418	999.710369506601	420.715740562412	357.452032138153	914.998434037710	303.409017253779	306.905926031022	965.748423681091	195.068467398314	380.871307813355	906.470637399107	395.606851795526	588.513279756872	782.366400942370	363.331671477772	645.345505425231	764.093679815782	254.102556779768	597.430273869763	561.302729844962	207.080991541367	564.991661767213	718.989993834383	126.702225230396	606.167206401684	609.134843723381	135.468045857730	634.387551747406	770.903724449468	29.132038932766	624.029380023556	838.758075317623	38.134138434958	421.376975280505	913.210653377057	36.171144307430	341.061699963982	996.488537789347	96.716227060175	368.743926059169	1125.187220907501	42.686433723444	340.356765826908	837.468869795335	1088.005939458170	173.634780014861	920.944768623498	839.626880984873	176.751046221920	959.703887293611	1088.102132245349	737.626018461056	1191.253363686543	985.118589502708	700.359889020766	
91	39.427142857143	736.575869442855	1009.406143681251	467.712083687929	899.597049744607	1438.916182752038	288.559690778705	1011.366417654735	1367.322452841750	441.916897067600	936.757334446421	1437.358558720025	620.966263780393	903.691498400271	1497.225390441061	441.504576478703	962.432862417932	940.745764728429	578.810899903919	945.703618993874	962.467253454762	306.035538347147	1004.563595477617	738.935390779145	563.332474230807	928.610885439646	631.546490774378	630.919805359800	1010.361370794626	571.024060819334	557.268409403748	1000.918401621087	460.377407965301	580.554099915224	1006.258692856195	757.575795083291	340.765103965100	926.368549557274	635.235716253683	284.737452149664	1015.421453343869	563.915926685949	350.176129861462	1020.202798036131	493.525075828345	362.213286303664	994.602482054201	419.853402510756	355.871703622626	909.133469755372	302.959865375882	305.693787707674	958.937351848809	194.538236114659	380.185948925356	917.867067278512	397.634215338422	586.292562953866	793.089039594481	368.889859264400	643.848623200815	771.728501696187	260.180943763320	596.497962590294	568.909308565226	222.094235286545	564.505631325654	722.132761622791	132.766592122762	605.916562806805	612.763181935919	147.983738873060	634.231392624363	767.445068800130	28.629168089421	624.567157124664	831.017703059635	38.094368198419	421.268648113981	905.448717706667	36.063323893162	340.911230736795	988.791204700426	96.548122196468	368.578196763307	1117.501481399796	42.373194197843	340.286059889870	844.787319775319	1087.900593967165	168.471002881554	940.402492410499	843.722900862655	171.149954433134	950.163752594927	1086.669212002310	734.526202069048	1174.029033429021	965.128656168894	701.470441635587	
92	39.440000000000	736.125190680437	1009.303911208987	465.415197546851	900.134468669169	1439.022447952914	286.733302313492	1011.183501563633	1367.329994095056	440.586723380187	935.723301860628	1437.099168699429	619.359365471162	903.682235046286	1497.325472968440	439.724355642653	961.807593120728	941.010413850801	576.813521343342	945.586772605846	962.551926788379	304.150752195353	1009.562976082998	742.181150451545	560.046923671356	938.221119916143	632.960689594852	628.711077588607	1020.791126649009	574.464835614781	553.839424605489	1013.958752655839	462.621191913109	577.490638023859	1004.558830094144	756.573766934812	338.267816208126	922.952389931235	635.184951775061	282.780167897173	1011.218129235568	562.940695556301	348.036665865438	1015.174732374867	492.625357710830	360.328089676911	989.251741249944	419.084513007159	354.253211401347	903.043732390558	302.580956087546	304.464011232191	952.023578288911	194.076405828172	379.431620658792	929.681956445459	400.126268525190	583.750195155496	804.358049408136	374.513871177999	641.957366590936	780.220636109398	266.395994094005	595.047999902752	577.676689693386	236.150614613684	563.279438719002	726.763415420500	139.407496393296	605.283940027679	617.938301311134	160.159023063354	633.494979148080	766.017542660970	28.844713605147	624.897727915706	823.293387898003	38.083962217158	421.142800551404	897.703536874612	35.971919394999	340.748062338161	981.103314586207	96.403563721321	368.358072077056	1109.820410823012	42.096574914862	340.185891065638	852.519734522622	1087.871023738140	163.441921502977	960.014152669215	848.504827479191	165.879404037717	940.840444892871	1085.529710608590	731.611080701927	1155.090242097149	945.866057399006	702.530837517742	
93	39.452857142857	735.534368307610	1009.294225288716	463.279458339414	900.655848423243	1439.127877250576	285.026551718170	1010.967856222898	1367.341340897951	439.379578837959	934.698358167676	1436.928011580676	617.853273851081	903.709309009566	1497.474008859162	438.043380051382	961.050903746311	941.356788081090	575.029177000778	945.365604079021	962.729040645276	302.426144662363	1014.326461266578	745.853464802813	556.690949182009	947.713328428531	634.847828933930	626.446940553983	1031.080230116636	578.534375240379	550.390735801700	1027.092450728032	465.567705274193	574.272465697391	1002.596042552282	755.603995990909	335.791121275777	919.158831793573	635.209994963931	280.912148987941	1006.686110293580	562.003194398109	345.883128478857	1009.818839341633	491.791981479866	358.429685271500	983.614532060556	418.435473428110	352.617135535383	896.684567202692	302.294702975646	303.235588915524	944.993583544868	193.704187698309	378.616070070951	941.781536622109	403.113294208057	580.998405586838	816.014425908392	380.109226203328	639.715781470444	789.541178738774	272.586078022004	593.126769767270	587.429356618479	248.745774739778	561.346111252193	733.002478942115	146.331536183415	604.223856458940	624.677521762299	171.464123712549	632.139112522614	767.075258972272	29.916330862919	624.853209185621	815.574259337887	38.106485192357	421.001125945623	889.968000776983	35.896843174990	340.577217895038	973.420268082779	96.283523751288	368.086050243978	1102.135985460767	41.852944626736	340.060882910137	860.618020362328	1087.987593710845	158.602477137238	979.636228418775	854.002552640866	160.983310069315	931.784219532359	1084.744294656640	728.935732456643	1134.485338521561	927.541981261608	703.600200124834	
94	39.465714285714	734.810281164836	1009.419871864036	461.305104251197	901.203092937564	1439.273515789087	283.436874599861	1010.738603026472	1367.393054230128	438.302559063692	933.691504010855	1436.895170003568	616.447785286653	903.782470585959	1497.704866044904	436.456364144611	960.191639832954	941.822603918148	573.449425341844	945.064343682822	963.036543881528	300.844865824982	1018.791723772536	749.940195231011	553.365909009907	956.922829077465	637.232766933444	624.194313028444	1041.102420227093	583.227813054941	547.057350449940	1040.160526191914	469.248645175321	571.037307591508	1000.355123494072	754.670242872409	333.337451905439	914.971021614158	635.318501138084	279.158072838869	1001.795930707374	561.115631663863	343.750631131876	1004.099730447161	491.039494450741	356.551313265397	977.661259392441	417.926285343081	350.983687170179	890.024253502296	302.119080109143	302.026149495236	937.840928543955	193.438573374942	377.746825341974	954.045789100941	406.596226055190	578.152760669339	827.920256295107	385.558946759200	637.194976241321	799.665532790307	278.567823255856	590.807783832625	598.005865493237	259.441423634963	558.802874846879	740.935059916166	153.194797427511	602.701759909617	632.978851565568	181.397295084161	630.174616975046	771.003920287362	31.857019378499	624.268160191924	807.849216467740	38.165116939348	420.844117457905	882.235311538483	35.837504756597	340.402470602650	965.738019580424	96.188139127302	367.766125201504	1094.441167891606	41.637719655634	339.917116183426	869.002763097897	1088.314147969638	154.004496944259	999.122205876030	860.235479164342	156.497850240890	923.028071794522	1084.359723403863	726.538916115915	1112.325398730347	910.383079502764	704.738081590524	
95	39.478571428571	733.965721897983	1009.708298737609	459.491362483675	901.814817006895	1439.492105611967	281.961789982857	1010.514019432348	1367.510499083174	437.360739613499	932.710874120917	1437.030986090655	615.143193519473	903.906376610285	1498.039147129019	434.959552158942	959.260013428692	942.432249727653	572.058317958087	944.710160495398	963.498609471081	299.383463771153	1022.912328793926	754.404310845151	550.169817539516	965.714356619503	640.109910120741	622.022157006961	1050.752103959608	588.509236900929	543.957090631694	1053.018726140462	473.663001376807	567.912636282297	997.829662561559	753.778302696371	330.934327849822	910.403262246580	635.518867453371	277.535949937238	996.539892414654	560.291229489968	341.678604058253	998.003502432647	490.379964154390	354.724774955770	971.381915573752	417.569203516789	349.371507049286	883.049968025114	302.066824265118	300.851016467648	930.566973394157	193.291246103729	376.831445644393	966.373248062811	410.544105023914	575.321055667227	839.966820420742	390.729271395496	634.485913591694	810.573233817601	284.150212867597	588.183365598160	609.282846016257	267.899466381604	555.797653481585	750.607587532441	159.639982023845	600.705113111210	642.828661477378	189.533169947704	627.662860117959	778.071447401527	34.534683834571	623.009374228474	800.109028925370	38.263431278216	420.670892108913	874.500418081091	35.793459915161	340.226118050753	958.054181519942	96.117261581195	367.403212982118	1086.731252081182	41.446161552689	339.761086244732	877.570625061851	1088.900334751726	149.693601321217	1018.328584310139	867.209919688022	152.451813450210	914.578816043293	1084.403822691286	724.441818278594	1088.793884153855	894.629649106909	705.988587501372	
